<svg width="82" height="82" viewBox="0 0 82 82" fill="none" xmlns="http://www.w3.org/2000/svg">
<circle cx="41" cy="41" r="40.5" fill="white" stroke="#DEDEDE"/>
<path d="M48.0707 37.6989L52.3133 41.9415C53.0018 42.6208 53.5491 43.4296 53.9237 44.3213C54.2983 45.2129 54.4928 46.1699 54.496 47.1371C54.4993 48.1042 54.3112 49.0625 53.9425 49.9566C53.5739 50.8508 53.0321 51.6632 52.3482 52.3471C51.6643 53.031 50.8519 53.5728 49.9577 53.9414C49.0636 54.31 48.1053 54.4981 47.1382 54.4949C46.171 54.4917 45.214 54.2971 44.3224 53.9225C43.4307 53.5479 42.6219 53.0007 41.9426 52.3122L40.5293 50.8989C40.3382 50.7145 40.1857 50.4939 40.0808 50.2499C39.9759 50.0059 39.9206 49.7435 39.9182 49.478C39.9157 49.2124 39.9662 48.949 40.0666 48.7032C40.1671 48.4574 40.3155 48.234 40.5032 48.0461C40.6909 47.8582 40.9141 47.7096 41.1599 47.6089C41.4056 47.5083 41.6689 47.4575 41.9345 47.4597C42.2001 47.4619 42.4625 47.5169 42.7066 47.6216C42.9506 47.7264 43.1714 47.8786 43.356 48.0695L44.772 49.4842C45.3981 50.1047 46.2446 50.4519 47.1261 50.4499C48.0076 50.4478 48.8524 50.0967 49.4757 49.4732C50.0989 48.8498 50.4499 48.0049 50.4517 47.1234C50.4535 46.2419 50.106 45.3955 49.4853 44.7695L45.2427 40.5269C44.7841 40.0681 44.2016 39.7531 43.5667 39.6205C42.9317 39.4878 42.2719 39.5434 41.668 39.7802C41.4529 39.8655 41.2511 39.9527 41.0627 40.0415L40.444 40.3309C39.6173 40.7042 38.9813 40.8642 38.172 40.0562C37.0093 38.8935 37.3106 37.8202 38.728 36.8429C40.1399 35.8714 41.8474 35.425 43.5541 35.5814C45.2608 35.7378 46.8588 36.487 48.0707 37.6989ZM40.0573 29.6855L41.4706 31.0989C41.8351 31.4759 42.037 31.981 42.0327 32.5054C42.0284 33.0298 41.8183 33.5315 41.4476 33.9025C41.077 34.2735 40.5754 34.4841 40.0511 34.4889C39.5267 34.4937 39.0214 34.2924 38.644 33.9282L37.2293 32.5149C36.9219 32.1964 36.5542 31.9424 36.1475 31.7676C35.7409 31.5928 35.3035 31.5007 34.8609 31.4967C34.4183 31.4927 33.9794 31.577 33.5697 31.7444C33.16 31.9119 32.7877 32.1593 32.4747 32.4722C32.1616 32.7851 31.914 33.1572 31.7463 33.5668C31.5786 33.9764 31.4941 34.4153 31.4978 34.8579C31.5015 35.3005 31.5934 35.7379 31.768 36.1447C31.9425 36.5514 32.1964 36.9193 32.5147 37.2269L36.7573 41.4695C37.2159 41.9283 37.7984 42.2433 38.4333 42.3759C39.0683 42.5086 39.7281 42.4531 40.332 42.2162C40.5471 42.1309 40.7489 42.0438 40.9373 41.9549L41.556 41.6655C42.3827 41.2922 43.02 41.1322 43.828 41.9402C44.9907 43.1029 44.6893 44.1762 43.272 45.1535C41.8601 46.1251 40.1525 46.5714 38.4459 46.415C36.7392 46.2587 35.1411 45.5095 33.9293 44.2975L29.6867 40.0549C28.9982 39.3756 28.4509 38.5668 28.0763 37.6752C27.7017 36.7835 27.5072 35.8265 27.5039 34.8594C27.5007 33.8922 27.6888 32.934 28.0574 32.0398C28.4261 31.1456 28.9679 30.3332 29.6518 29.6493C30.3357 28.9655 31.1481 28.4236 32.0422 28.055C32.9364 27.6864 33.8947 27.4983 34.8618 27.5015C35.829 27.5047 36.7859 27.6993 37.6776 28.0739C38.5693 28.4485 39.378 28.9971 40.0573 29.6855Z" fill="#1065E3"/>
</svg>
