<svg width="82" height="82" viewBox="0 0 82 82" fill="none" xmlns="http://www.w3.org/2000/svg">
<circle cx="41" cy="41" r="40.5" fill="white" stroke="#DEDEDE"/>
<path fill-rule="evenodd" clip-rule="evenodd" d="M31.6667 33.333C30.6942 33.333 29.7616 33.7193 29.0739 34.4069C28.3863 35.0946 28 36.0272 28 36.9997V48.9997C28 49.9721 28.3863 50.9048 29.0739 51.5924C29.7616 52.28 30.6942 52.6663 31.6667 52.6663H50.3333C51.3058 52.6663 52.2384 52.28 52.9261 51.5924C53.6137 50.9048 54 49.9721 54 48.9997V36.9997C54 36.0272 53.6137 35.0946 52.9261 34.4069C52.2384 33.7193 51.3058 33.333 50.3333 33.333H31.6667ZM47 41.333C46.558 41.333 46.1341 41.5086 45.8215 41.8212C45.5089 42.1337 45.3333 42.5576 45.3333 42.9997C45.3333 43.4417 45.5089 43.8656 45.8215 44.1782C46.1341 44.4907 46.558 44.6663 47 44.6663C47.442 44.6663 47.866 44.4907 48.1785 44.1782C48.4911 43.8656 48.6667 43.4417 48.6667 42.9997C48.6667 42.5576 48.4911 42.1337 48.1785 41.8212C47.866 41.5086 47.442 41.333 47 41.333Z" fill="#1065E3"/>
<path d="M46.98 29.0919C47.3748 28.9867 47.7884 28.9736 48.1891 29.0536C48.5897 29.1337 48.9666 29.3047 49.2907 29.5535C49.6147 29.8023 49.8773 30.1222 50.058 30.4886C50.2388 30.855 50.333 31.258 50.3333 31.6665H37L46.98 29.0919Z" fill="#1065E3"/>
</svg>
