<svg width="82" height="82" viewBox="0 0 82 82" fill="none" xmlns="http://www.w3.org/2000/svg">
<circle cx="41" cy="41" r="40.5" fill="white" stroke="#DEDEDE"/>
<path d="M50.3639 41.7235L48.5109 39.8705C48.2889 39.6746 48.1105 39.434 47.9875 39.1647C47.8645 38.8953 47.7995 38.603 47.7968 38.3068C47.7852 37.961 47.8454 37.6164 47.9736 37.295C48.1018 36.9735 48.2952 36.6821 48.5416 36.4391L50.3639 34.6168C51.9424 33.0372 52.5346 31.5191 52.0335 30.3198C51.5483 29.1354 50.045 28.4817 47.8276 28.4817H31.9594V27.1765C31.9594 26.5535 31.4424 26.0376 30.8205 26.0376C30.1976 26.0376 29.6816 26.5535 29.6816 27.1765V55.2683C29.6816 55.8913 30.1976 56.4072 30.8205 56.4072C31.4424 56.4072 31.9594 55.8913 31.9594 55.2683V47.8587H47.8276C50.0142 47.8587 51.4868 47.1902 51.9879 45.9909C52.489 44.7905 51.9128 43.2872 50.3639 41.7235Z" fill="#1065E3"/>
</svg>
