<svg width="30" height="30" viewBox="0 0 30 30" fill="none" xmlns="http://www.w3.org/2000/svg">
<g clip-path="url(#clip0_384_30)">
<path d="M15 30C23.2843 30 30 23.2843 30 15C30 6.71573 23.2843 0 15 0C6.71573 0 0 6.71573 0 15C0 23.2843 6.71573 30 15 30Z" fill="url(#paint0_linear_384_30)"/>
<path d="M14.9995 27.955C22.1541 27.955 27.954 22.155 27.954 15.0004C27.954 7.84585 22.1541 2.0459 14.9995 2.0459C7.84487 2.0459 2.04492 7.84585 2.04492 15.0004C2.04492 22.155 7.84487 27.955 14.9995 27.955Z" fill="url(#paint1_linear_384_30)"/>
<path d="M27.9554 15C27.9554 18.4358 26.5905 21.7308 24.1611 24.1602C21.7316 26.5897 18.4366 27.9545 15.0009 27.9545H14.2901L6.60938 20.2739C8.18416 21.2892 10.0198 21.8257 11.8935 21.8182C18.2259 21.8182 21.6878 16.5733 21.6878 12.0273C21.6878 11.8756 21.6878 11.729 21.6759 11.5824C22.3543 11.0969 22.9384 10.4915 23.3991 9.79602C22.7679 10.0717 22.1003 10.2548 21.4168 10.3398C22.1373 9.9125 22.6759 9.23559 22.9304 8.4375L27.8531 13.367C27.9217 13.9087 27.9558 14.4541 27.9554 15Z" fill="url(#paint2_linear_384_30)"/>
<path d="M23.3911 9.7961C22.7599 10.0718 22.0922 10.2549 21.4087 10.3399C22.1293 9.91258 22.6679 9.23567 22.9224 8.43758C22.248 8.83787 21.5101 9.11978 20.7406 9.2711C20.269 8.76681 19.6566 8.41609 18.9831 8.26455C18.3095 8.11301 17.6059 8.16767 16.9638 8.42141C16.3217 8.67515 15.7709 9.11624 15.3829 9.6873C14.9949 10.2584 14.7877 10.933 14.7883 11.6234C14.7859 11.8869 14.8127 12.1499 14.8684 12.4075C13.4996 12.3402 12.1604 11.985 10.9382 11.365C9.71606 10.7449 8.63845 9.87403 7.77578 8.80917C7.33236 9.56669 7.19498 10.465 7.39173 11.3204C7.58848 12.1758 8.10449 12.9238 8.8343 13.4114C8.28957 13.3968 7.75637 13.2512 7.27976 12.987V13.0245C7.28129 13.8185 7.55613 14.5878 8.05807 15.2031C8.56002 15.8183 9.25846 16.242 10.036 16.4029C9.74176 16.4802 9.43853 16.5181 9.1343 16.5154C8.91525 16.5195 8.69638 16.5 8.48146 16.4575C8.70423 17.1403 9.13309 17.7374 9.70908 18.1666C10.2851 18.5958 10.9799 18.8359 11.6979 18.8541C10.4811 19.8052 8.98102 20.3218 7.43658 20.3217C7.16139 20.324 6.88635 20.3081 6.61328 20.2739C8.18806 21.2893 10.0237 21.8257 11.8974 21.8183C18.2298 21.8183 21.6917 16.5734 21.6917 12.0274C21.6917 11.8756 21.6917 11.7291 21.6798 11.5825C22.354 11.0959 22.9339 10.4905 23.3911 9.7961Z" fill="white"/>
</g>
<defs>
<linearGradient id="paint0_linear_384_30" x1="4.39261" y1="4.39261" x2="25.6074" y2="25.6074" gradientUnits="userSpaceOnUse">
<stop stop-color="#03A9F4"/>
<stop offset="0.73" stop-color="#0A62B8"/>
<stop offset="1" stop-color="#0D47A1"/>
</linearGradient>
<linearGradient id="paint1_linear_384_30" x1="5.83924" y1="5.84022" x2="24.1597" y2="24.1607" gradientUnits="userSpaceOnUse">
<stop stop-color="#0D47A1"/>
<stop offset="0.27" stop-color="#0A62B8"/>
<stop offset="1" stop-color="#03A9F4"/>
</linearGradient>
<linearGradient id="paint2_linear_384_30" x1="13.6474" y1="13.2358" x2="24.3656" y2="23.9557" gradientUnits="userSpaceOnUse">
<stop stop-color="#0D47A1"/>
<stop offset="1" stop-color="#0D47A1" stop-opacity="0"/>
</linearGradient>
<clipPath id="clip0_384_30">
<rect width="30" height="30" fill="white"/>
</clipPath>
</defs>
</svg>
