<svg width="62" height="62" viewBox="0 0 62 62" fill="none" xmlns="http://www.w3.org/2000/svg">
<circle cx="31" cy="31" r="30.5" fill="#EAFEFF" stroke="#EAEAEA"/>
<path d="M48.9307 36.7617C48.8111 37.1699 48.5367 37.5335 48.1358 37.7502L34.943 44.9343C34.3203 45.2749 33.6834 45.4753 33.0352 45.5361C32.3847 45.597 31.72 45.5168 31.0439 45.3009L28.1939 44.3814C27.3607 44.1142 26.5335 44.0177 25.7214 44.0934C24.9754 44.1646 24.246 44.3776 23.5406 44.7331L19.3415 37.4393L24.3377 34.7171C25.2266 34.2332 26.1365 33.9489 27.0644 33.8628C27.9916 33.7745 28.9421 33.8859 29.9039 34.1976L37.7058 36.7112C38.0149 36.8099 38.275 36.9932 38.4691 37.2285C38.821 37.6552 38.9466 38.226 38.7886 38.7603C38.7781 38.7855 38.7691 38.813 38.7631 38.8405C38.4728 39.6694 37.5712 40.1318 36.7297 39.8839C36.7019 39.8713 36.6718 39.8631 36.6425 39.8565L30.0686 37.7361C29.7468 37.6352 29.4039 37.8096 29.3016 38.1317C29.1993 38.4516 29.376 38.7944 29.6956 38.8976L36.3161 41.0328C37.0689 41.2747 37.8532 41.1864 38.5074 40.8495C39.1744 40.5066 39.7136 39.8921 39.9354 39.1729C40.0204 38.9102 40.0655 38.6386 40.0715 38.3633L46.5492 34.8351C46.95 34.6161 47.4042 34.5827 47.8132 34.7044C48.2201 34.8247 48.5825 35.0978 48.7998 35.4978V35.5C49.0179 35.8993 49.0518 36.3535 48.9307 36.7617ZM40.3979 33.9638L37.7103 35.428L38.081 35.5483C38.6014 35.7167 39.0616 36.0299 39.409 36.4507C39.5775 36.6526 39.7136 36.8738 39.8204 37.1068L43.5675 35.0659C43.5397 35.0006 43.5081 34.9353 43.4735 34.8722C42.8764 33.7768 41.4935 33.3663 40.3979 33.9638ZM17.048 35.9015C16.8863 35.6217 16.5238 35.5253 16.2426 35.6893L13.2971 37.3851C13.0158 37.5491 12.9158 37.9113 13.0775 38.1911L19.707 49.707C19.8672 49.9868 20.2289 50.0833 20.5124 49.9215L23.4564 48.2235C23.7399 48.0617 23.8377 47.6973 23.676 47.4175L17.048 35.9015ZM27.7848 21.5097H29.5415C29.6054 21.5097 29.6565 21.4593 29.6565 21.3984V20.2748C29.6565 19.9675 29.5114 19.6922 29.2858 19.5111V16.7681L30.8484 17.3975C30.9357 17.1912 31.0657 16.9997 31.2342 16.8379C32.7946 15.3232 34.8791 14.4816 37.0681 14.4816C39.2571 14.4816 41.3416 15.3232 42.9043 16.8379C43.0727 16.9997 43.2006 17.1912 43.2878 17.3975L45.837 16.3711C46.0205 16.2976 46.1333 16.1314 46.1333 15.9354C46.1333 15.738 46.0205 15.5718 45.837 15.4976L37.2493 12.0362C37.1298 11.9879 37.0087 11.9879 36.8891 12.0362L28.3007 15.4968C28.1172 15.5703 28.0022 15.7365 28.0022 15.9347C28.0022 16.0022 28.0172 16.0675 28.0428 16.1262V19.5111C27.8172 19.6922 27.672 19.9675 27.672 20.2748V21.3984C27.672 21.4593 27.7232 21.5097 27.7848 21.5097ZM42.1779 19.9171V18.0469C42.1779 17.9162 42.129 17.8027 42.035 17.7099C40.7558 16.4705 39.0037 15.7054 37.0681 15.7054C35.1347 15.7054 33.3826 16.4713 32.1035 17.7099C32.0095 17.8027 31.9606 17.9162 31.9606 18.0469V19.9171C33.3721 18.8335 35.143 18.1879 37.0681 18.1879C38.9947 18.1879 40.7664 18.8335 42.1779 19.9171ZM44.1533 26.405C44.1533 30.2656 40.9814 33.396 37.0681 33.396C33.1563 33.396 29.9844 30.2656 29.9844 26.405C29.9844 22.5443 33.1563 19.4139 37.0681 19.4139C40.9814 19.4139 44.1533 22.5443 44.1533 26.405ZM39.0977 27.7705C39.0977 27.2258 38.8736 26.7315 38.5097 26.3738C38.2029 26.0688 37.7953 25.8647 37.3433 25.8075C37.2982 25.7971 37.2516 25.7927 37.205 25.7927H37.0448C36.8357 25.7927 36.644 25.7066 36.5056 25.57C36.3673 25.4335 36.2815 25.2457 36.2815 25.0402C36.2815 24.8338 36.3665 24.6446 36.5056 24.508C36.644 24.3715 36.8357 24.2869 37.0448 24.2869H37.3644C37.49 24.2869 37.605 24.3166 37.7073 24.367C37.8141 24.4197 37.9073 24.4999 37.9803 24.5941C38.1825 24.8657 38.5706 24.9222 38.8458 24.7203C39.121 24.5206 39.1782 24.1377 38.9736 23.8661C38.7879 23.6197 38.545 23.4156 38.2638 23.2746C38.0848 23.184 37.893 23.1209 37.6885 23.0876V22.4523C37.6885 22.1139 37.4118 21.84 37.0681 21.84C36.7267 21.84 36.4477 22.1139 36.4477 22.4523V23.1506C36.1341 23.2471 35.8552 23.4178 35.6273 23.6427C35.2648 24.0004 35.0392 24.4947 35.0392 25.0394C35.0392 25.5841 35.2648 26.0784 35.6273 26.4361C35.9364 26.7389 36.3432 26.9453 36.7951 27.0024C36.8403 27.0128 36.8846 27.0172 36.9335 27.0172H37.0937C37.3027 27.0172 37.4922 27.1011 37.6306 27.2384C37.769 27.375 37.8562 27.5642 37.8562 27.7705C37.8562 27.9768 37.769 28.1661 37.6306 28.3026C37.4922 28.4392 37.302 28.5238 37.0937 28.5238H36.7741C36.6485 28.5238 36.5334 28.4941 36.4312 28.4437C36.3221 28.391 36.2289 28.3108 36.1582 28.2166C35.9537 27.9449 35.5679 27.8885 35.2927 28.0882C35.0174 28.29 34.9603 28.673 35.1626 28.9446C35.3498 29.191 35.5935 29.3951 35.8724 29.5361C36.0514 29.6244 36.2454 29.6897 36.4477 29.7231V30.3584C36.4477 30.6968 36.7267 30.9707 37.0681 30.9707C37.411 30.9707 37.6908 30.6968 37.6908 30.3584V29.66C38.0021 29.5636 38.2833 29.3929 38.5097 29.168C38.8736 28.8095 39.0977 28.3153 39.0977 27.7705Z" fill="#003478"/>
</svg>
