<svg width="62" height="62" viewBox="0 0 62 62" fill="none" xmlns="http://www.w3.org/2000/svg">
<circle cx="31" cy="31" r="30.5" fill="#EAFEFF" stroke="#EAEAEA"/>
<path d="M21.2269 27.1896C20.7051 27.8873 20.8454 28.8803 21.5408 29.4043C21.8243 29.6181 22.1583 29.7212 22.4893 29.7212C22.9703 29.7212 23.446 29.5038 23.757 29.0904C24.2802 28.392 24.1392 27.3989 23.443 26.8772C22.7462 26.3525 21.7524 26.492 21.2269 27.1896ZM22.8197 27.7062C22.8204 27.7062 22.8204 27.7069 22.8212 27.7069C23.0602 27.8858 23.1077 28.2279 22.928 28.4677C22.7469 28.7074 22.4048 28.7564 22.1643 28.5753C21.9253 28.3949 21.8771 28.052 22.0567 27.8123C22.1628 27.6706 22.3261 27.5963 22.4916 27.5963C22.6059 27.5964 22.721 27.632 22.8197 27.7062ZM47.6302 15.1165C45.4111 13.5913 42.7303 13.0213 40.0814 13.5119C37.4325 14.0025 35.134 15.495 33.6088 17.7142C32.3493 19.5452 31.74 21.6834 31.8446 23.8973C31.9404 25.9257 32.6603 27.9081 33.8782 29.5187L33.3846 30.488C33.2154 30.4523 33.0388 30.4338 32.8577 30.4338H25.6548C26.463 29.3339 26.9113 27.9905 26.9113 26.6086C26.9113 23.0498 24.016 20.1545 20.458 20.1545C16.8992 20.1545 14.0039 23.0498 14.0039 26.6086C14.0039 28.0165 14.45 29.3546 15.2931 30.4776C15.9692 31.3793 16.8843 32.0948 17.9145 32.5394L16.8739 34.0987H15.1625C14.5234 34.0987 14.0039 34.6197 14.0039 35.2595C14.0039 35.8978 14.5234 36.4173 15.1625 36.4173H15.3265L14.565 37.5588L14.5657 37.5595C14.5019 37.6545 14.4707 37.7673 14.4789 37.8831L15.014 45.6152V46.8703C15.014 47.8574 15.8171 48.6597 16.8034 48.6597H19.05C20.0371 48.6597 20.8395 47.8574 20.8395 46.8703V46.1162H32.6402V46.8703C32.6402 47.8574 33.444 48.6597 34.4311 48.6597H36.6763C37.6641 48.6597 38.4679 47.8574 38.4679 46.8703V45.6152L39.003 37.8831C39.0112 37.7673 38.9793 37.6538 38.9162 37.5595L38.9169 37.5588L38.1532 36.4173H38.3172C38.957 36.4173 39.4773 35.8978 39.4773 35.2595C39.4773 34.6197 38.957 34.0987 38.3172 34.0987H36.6035L36.2873 33.6274L38.9206 33.0582C40.9112 33.6779 43.0947 33.6586 45.0852 33.001C47.1901 32.3063 48.9684 30.9711 50.2271 29.1409C53.3763 24.5586 52.2111 18.2679 47.6302 15.1165ZM15.0416 26.6085C15.0416 23.6219 17.4715 21.192 20.458 21.192C23.4446 21.192 25.8745 23.6219 25.8745 26.6085C25.8745 28.0409 25.2993 29.4236 24.2922 30.4337H20.6243C19.7819 30.4337 19.0598 30.8219 18.5914 31.5255L18.5016 31.6606C16.4168 30.8568 15.0416 28.8729 15.0416 26.6085ZM16.2662 40.4014V39.2272C16.2662 39.0691 16.3382 38.92 16.4614 38.8213C16.5853 38.7233 16.7464 38.6862 16.9007 38.7218L20.1011 39.458C20.3386 39.513 20.5063 39.726 20.5033 39.9702L20.4818 41.5607C20.4796 41.7284 20.3964 41.885 20.2584 41.9807C20.1708 42.0416 20.0677 42.0728 19.963 42.0728C19.9036 42.0728 19.8443 42.0624 19.7864 42.0416L16.6076 40.889C16.4027 40.8139 16.2662 40.6196 16.2662 40.4014ZM22.7714 41.2667H30.7098L29.9253 43.1414H23.5551L22.7714 41.2667ZM37.2159 40.4014C37.2159 40.6196 37.0793 40.814 36.8737 40.889L33.6927 42.0416C33.6356 42.0624 33.5755 42.0728 33.5161 42.0728C33.4122 42.0728 33.309 42.0409 33.2214 41.98C33.0827 41.885 32.9995 41.7284 32.998 41.5599L32.9787 39.9694C32.9758 39.726 33.1435 39.513 33.381 39.458L36.5813 38.7218C36.735 38.6862 36.8968 38.7233 37.02 38.8213C37.1439 38.92 37.2159 39.0691 37.2159 39.2272V40.4014ZM37.515 37.3286H15.9656L16.7256 36.1894C16.7263 36.1886 16.7263 36.1879 16.7271 36.1872L17.5702 34.9239C17.5798 34.9113 17.588 34.8987 17.5962 34.8854L19.1251 32.5942C19.1325 32.5838 19.1392 32.5734 19.1459 32.5631L19.4546 32.1007C19.7285 31.6888 20.133 31.4713 20.6243 31.4713H32.8578C32.8667 31.4713 32.8748 31.472 32.8837 31.4728L31.7267 33.7468C31.6361 33.9257 31.6554 34.1402 31.7779 34.299C31.8773 34.4274 32.0302 34.5009 32.1891 34.5009C32.2254 34.5009 32.2618 34.4972 32.2982 34.489L35.1979 33.8626L37.515 37.3286ZM49.3729 28.553C47.113 31.8379 42.8921 33.2674 39.1077 32.0294C39.0202 32.0005 38.9266 31.996 38.8368 32.0153L33.1457 33.2451L34.953 29.6945C35.0457 29.5112 35.022 29.2907 34.8928 29.1319C32.3813 26.0407 32.2046 21.5868 34.4631 18.3012C35.8317 16.3106 37.8943 14.9717 40.27 14.5316C40.8266 14.4284 41.3833 14.378 41.9369 14.378C43.7494 14.378 45.5173 14.9235 47.0425 15.9714C51.1527 18.7984 52.1976 24.4421 49.3729 28.553ZM19.6877 26.0282C20.2124 25.332 20.0721 24.3375 19.3752 23.8127C18.6783 23.288 17.6845 23.4283 17.1583 24.1267C16.6365 24.8229 16.7775 25.8159 17.4715 26.3391C17.7565 26.5536 18.0912 26.6568 18.423 26.6568C18.9032 26.6567 19.3774 26.4401 19.6877 26.0282ZM17.9873 24.7493C18.0949 24.6068 18.2589 24.5318 18.4244 24.5318C18.538 24.5318 18.653 24.5675 18.751 24.6409C18.9915 24.822 19.0397 25.1642 18.8594 25.4039C18.679 25.6436 18.3361 25.6911 18.0957 25.51C17.8567 25.3304 17.8084 24.9884 17.9873 24.7493ZM41.9168 16.7738C38.1985 16.7738 35.1733 19.8005 35.1733 23.5196C35.1733 27.2394 38.1985 30.2661 41.9168 30.2661C45.6367 30.2661 48.6626 27.2394 48.6626 23.5196C48.6627 19.8004 45.6368 16.7738 41.9168 16.7738ZM41.0708 23.0014H42.7645C43.9134 23.0014 44.5138 23.8906 44.5138 24.7693C44.5138 25.2228 44.3594 25.6488 44.0782 25.9702C43.7575 26.3361 43.2914 26.538 42.7645 26.538H42.4357V27.4249C42.4357 27.7106 42.2034 27.9429 41.9169 27.9429C41.6304 27.9429 41.3981 27.7106 41.3981 27.4249V26.538H39.8403C39.5538 26.538 39.3222 26.3057 39.3222 26.0192C39.3222 25.7327 39.5538 25.5004 39.8403 25.5004H42.7645C42.9946 25.5004 43.1734 25.4284 43.2974 25.2874C43.4117 25.1568 43.477 24.9682 43.477 24.7693C43.477 24.6944 43.4569 24.0383 42.7645 24.0383H41.0708C39.9227 24.0383 39.3215 23.1491 39.3215 22.2704C39.3215 21.8169 39.4766 21.3909 39.7579 21.0695C40.0785 20.7036 40.5446 20.5018 41.0708 20.5018H41.3981V19.6148C41.3981 19.3284 41.6304 19.0968 41.9169 19.0968C42.2034 19.0968 42.4357 19.3284 42.4357 19.6148V20.5018H43.9958C44.2823 20.5018 44.5138 20.7341 44.5138 21.0206C44.5138 21.307 44.2823 21.5393 43.9958 21.5393H41.0708C40.8415 21.5393 40.6626 21.6106 40.5387 21.7523C40.4244 21.883 40.3591 22.0715 40.3591 22.2704C40.3591 22.3447 40.379 23.0014 41.0708 23.0014ZM18.4 29.8601C18.2916 29.8601 18.1818 29.8259 18.0882 29.7554C17.8596 29.5832 17.8136 29.2582 17.9858 29.0296L22.1012 23.5634C22.2734 23.3348 22.5985 23.2888 22.8271 23.4609C23.0564 23.6331 23.1017 23.9582 22.9295 24.1875L18.8148 29.653C18.7124 29.7888 18.5573 29.8601 18.4 29.8601Z" fill="#003478"/>
</svg>
